<svg width="72" height="84" viewBox="0 0 72 84" fill="none" xmlns="http://www.w3.org/2000/svg">
<path d="M8.84375 28.7461H4.44922L4.42578 26.0508H7.98828C8.62891 26.0508 9.14062 25.9805 9.52344 25.8398C9.90625 25.6914 10.1836 25.4766 10.3555 25.1953C10.5352 24.9141 10.625 24.5625 10.625 24.1406C10.625 23.6562 10.5352 23.2656 10.3555 22.9688C10.1758 22.6719 9.89062 22.457 9.5 22.3242C9.11719 22.1836 8.62109 22.1133 8.01172 22.1133H5.99609V36H1.88281V18.9375H8.01172C9.06641 18.9375 10.0078 19.0352 10.8359 19.2305C11.6641 19.418 12.3672 19.707 12.9453 20.0977C13.5312 20.4883 13.9766 20.9805 14.2812 21.5742C14.5859 22.1602 14.7383 22.8516 14.7383 23.6484C14.7383 24.3438 14.5898 24.9961 14.293 25.6055C13.9961 26.2148 13.5 26.7109 12.8047 27.0938C12.1172 27.4688 11.1758 27.6641 9.98047 27.6797L8.84375 28.7461ZM8.67969 36H3.45312L4.85938 32.8359H8.67969C9.24219 32.8359 9.69141 32.75 10.0273 32.5781C10.3711 32.3984 10.6172 32.1641 10.7656 31.875C10.9219 31.5781 11 31.25 11 30.8906C11 30.4531 10.9258 30.0742 10.7773 29.7539C10.6367 29.4336 10.4102 29.1875 10.0977 29.0156C9.78516 28.8359 9.36719 28.7461 8.84375 28.7461H5.38672L5.41016 26.0508H9.54688L10.5078 27.1289C11.6484 27.082 12.5508 27.2422 13.2148 27.6094C13.8867 27.9766 14.3672 28.4609 14.6562 29.0625C14.9453 29.6641 15.0898 30.293 15.0898 30.9492C15.0898 32.0664 14.8477 33 14.3633 33.75C13.8867 34.5 13.1719 35.0625 12.2188 35.4375C11.2656 35.8125 10.0859 36 8.67969 36ZM4.85938 46.9375L8 54.3438L11.1523 46.9375H15.582L10.0977 57.8711V64H5.91406V57.8711L0.417969 46.9375H4.85938Z" fill="black"/>
<path d="M35.3516 4.9375V22H31.2383V4.9375H35.3516ZM41.9844 12.0391V15.2031H34.1797V12.0391H41.9844ZM42.6523 4.9375V8.11328H34.1797V4.9375H42.6523ZM43.9531 41.1289V41.8203C43.9531 43.125 43.7695 44.2969 43.4023 45.3359C43.043 46.3672 42.5312 47.25 41.8672 47.9844C41.2031 48.7109 40.418 49.2695 39.5117 49.6602C38.6055 50.043 37.6055 50.2344 36.5117 50.2344C35.4102 50.2344 34.4023 50.043 33.4883 49.6602C32.582 49.2695 31.793 48.7109 31.1211 47.9844C30.457 47.25 29.9414 46.3672 29.5742 45.3359C29.2148 44.2969 29.0352 43.125 29.0352 41.8203V41.1289C29.0352 39.8242 29.2148 38.6523 29.5742 37.6133C29.9414 36.5742 30.4531 35.6914 31.1094 34.9648C31.7734 34.2305 32.5586 33.6719 33.4648 33.2891C34.3789 32.8984 35.3867 32.7031 36.4883 32.7031C37.582 32.7031 38.582 32.8984 39.4883 33.2891C40.4023 33.6719 41.1914 34.2305 41.8555 34.9648C42.5195 35.6914 43.0352 36.5742 43.4023 37.6133C43.7695 38.6523 43.9531 39.8242 43.9531 41.1289ZM39.7812 41.8203V41.1055C39.7812 40.2617 39.707 39.5195 39.5586 38.8789C39.418 38.2305 39.207 37.6875 38.9258 37.25C38.6445 36.8125 38.2969 36.4844 37.8828 36.2656C37.4766 36.0391 37.0117 35.9258 36.4883 35.9258C35.9414 35.9258 35.4648 36.0391 35.0586 36.2656C34.6523 36.4844 34.3125 36.8125 34.0391 37.25C33.7656 37.6875 33.5586 38.2305 33.418 38.8789C33.2852 39.5195 33.2188 40.2617 33.2188 41.1055V41.8203C33.2188 42.6562 33.2852 43.3984 33.418 44.0469C33.5586 44.6875 33.7656 45.2305 34.0391 45.6758C34.3203 46.1211 34.6641 46.457 35.0703 46.6836C35.4844 46.9102 35.9648 47.0234 36.5117 47.0234C37.0352 47.0234 37.5 46.9102 37.9062 46.6836C38.3125 46.457 38.6523 46.1211 38.9258 45.6758C39.207 45.2305 39.418 44.6875 39.5586 44.0469C39.707 43.3984 39.7812 42.6562 39.7812 41.8203ZM29.9727 60.9375H36.6875C38 60.9375 39.1406 61.1328 40.1094 61.5234C41.0781 61.9141 41.8242 62.4922 42.3477 63.2578C42.8789 64.0234 43.1445 64.9688 43.1445 66.0938C43.1445 67.0703 42.9922 67.8867 42.6875 68.543C42.3828 69.1992 41.957 69.7422 41.4102 70.1719C40.8711 70.5938 40.2422 70.9414 39.5234 71.2148L38.1758 71.9766H32.5391L32.5156 68.8008H36.6875C37.2109 68.8008 37.6445 68.707 37.9883 68.5195C38.332 68.332 38.5898 68.0664 38.7617 67.7227C38.9414 67.3711 39.0312 66.9531 39.0312 66.4688C39.0312 65.9766 38.9414 65.5547 38.7617 65.2031C38.582 64.8516 38.3164 64.582 37.9648 64.3945C37.6211 64.207 37.1953 64.1133 36.6875 64.1133H34.0859V78H29.9727V60.9375ZM39.3125 78L35.5391 70.4531L39.8984 70.4297L43.7188 77.8242V78H39.3125Z" fill="black"/>
<path d="M67.5781 17.9375H71.6914V29.082C71.6914 30.4102 71.4141 31.5352 70.8594 32.457C70.3047 33.3711 69.5273 34.0625 68.5273 34.5312C67.5273 35 66.3516 35.2344 65 35.2344C63.6641 35.2344 62.4883 35 61.4727 34.5312C60.4648 34.0625 59.6758 33.3711 59.1055 32.457C58.543 31.5352 58.2617 30.4102 58.2617 29.082V17.9375H62.3867V29.082C62.3867 29.7852 62.4883 30.3594 62.6914 30.8047C62.8945 31.2422 63.1914 31.5625 63.582 31.7656C63.9727 31.9688 64.4453 32.0703 65 32.0703C65.5625 32.0703 66.0352 31.9688 66.418 31.7656C66.8008 31.5625 67.0898 31.2422 67.2852 30.8047C67.4805 30.3594 67.5781 29.7852 67.5781 29.082V17.9375ZM67.5781 58.4648C67.5781 58.1992 67.5391 57.9609 67.4609 57.75C67.3828 57.5312 67.2383 57.3281 67.0273 57.1406C66.8164 56.9531 66.5117 56.7656 66.1133 56.5781C65.7227 56.3828 65.207 56.1797 64.5664 55.9688C63.8164 55.7188 63.0938 55.4375 62.3984 55.125C61.7031 54.8047 61.082 54.4336 60.5352 54.0117C59.9883 53.582 59.5547 53.082 59.2344 52.5117C58.9141 51.9336 58.7539 51.2617 58.7539 50.4961C58.7539 49.7617 58.918 49.1016 59.2461 48.5156C59.5742 47.9219 60.0312 47.418 60.6172 47.0039C61.2109 46.582 61.9062 46.2617 62.7031 46.043C63.5 45.8164 64.3711 45.7031 65.3164 45.7031C66.5664 45.7031 67.668 45.9219 68.6211 46.3594C69.582 46.7891 70.332 47.4023 70.8711 48.1992C71.418 48.9883 71.6914 49.9219 71.6914 51H67.6016C67.6016 50.5703 67.5117 50.1914 67.332 49.8633C67.1602 49.5352 66.8984 49.2773 66.5469 49.0898C66.1953 48.9023 65.7539 48.8086 65.2227 48.8086C64.707 48.8086 64.2734 48.8867 63.9219 49.043C63.5703 49.1992 63.3047 49.4102 63.125 49.6758C62.9453 49.9336 62.8555 50.2188 62.8555 50.5312C62.8555 50.7891 62.9258 51.0234 63.0664 51.2344C63.2148 51.4375 63.4219 51.6289 63.6875 51.8086C63.9609 51.9883 64.2891 52.1602 64.6719 52.3242C65.0625 52.4883 65.5 52.6484 65.9844 52.8047C66.8906 53.0938 67.6953 53.418 68.3984 53.7773C69.1094 54.1289 69.707 54.5312 70.1914 54.9844C70.6836 55.4297 71.0547 55.9375 71.3047 56.5078C71.5625 57.0781 71.6914 57.7227 71.6914 58.4414C71.6914 59.207 71.543 59.8867 71.2461 60.4805C70.9492 61.0742 70.5234 61.5781 69.9688 61.9922C69.4141 62.3984 68.75 62.707 67.9766 62.918C67.2031 63.1289 66.3398 63.2344 65.3867 63.2344C64.5117 63.2344 63.6484 63.125 62.7969 62.9062C61.9531 62.6797 61.1875 62.3359 60.5 61.875C59.8125 61.4062 59.2617 60.8086 58.8477 60.082C58.4414 59.3477 58.2383 58.4766 58.2383 57.4688H62.3633C62.3633 57.9688 62.4297 58.3906 62.5625 58.7344C62.6953 59.0781 62.8906 59.3555 63.1484 59.5664C63.4062 59.7695 63.7227 59.918 64.0977 60.0117C64.4727 60.0977 64.9023 60.1406 65.3867 60.1406C65.9102 60.1406 66.332 60.0664 66.6523 59.918C66.9727 59.7617 67.207 59.5586 67.3555 59.3086C67.5039 59.0508 67.5781 58.7695 67.5781 58.4648Z" fill="black"/>
</svg>
